<svg width="26" height="26" viewBox="0 0 26 26" fill="none" xmlns="http://www.w3.org/2000/svg">
<path d="M13 25C9.8174 25 6.76516 23.7357 4.51472 21.4853C2.26428 19.2348 1 16.1826 1 13V13C1 9.8174 2.26428 6.76516 4.51472 4.51472C6.76516 2.26428 9.8174 1 13 1V1C16.1826 1 19.2348 2.26428 21.4853 4.51472C23.7357 6.76516 25 9.8174 25 13V13C25 16.1826 23.7357 19.2348 21.4853 21.4853C19.2348 23.7357 16.1826 25 13 25V25ZM13 6.33333C11.9452 6.33333 10.914 6.64613 10.037 7.23216C9.1599 7.8182 8.47631 8.65115 8.07264 9.62569C7.66897 10.6002 7.56336 11.6726 7.76914 12.7071C7.97493 13.7417 8.48288 14.692 9.22876 15.4379C9.97464 16.1838 10.925 16.6917 11.9595 16.8975C12.9941 17.1033 14.0664 16.9977 15.041 16.594C16.0155 16.1904 16.8485 15.5068 17.4345 14.6297C18.0205 13.7526 18.3333 12.7215 18.3333 11.6667C18.3333 10.2522 17.7714 8.89562 16.7712 7.89543C15.771 6.89524 14.4145 6.33333 13 6.33333ZM15.8933 16.1333C15.0341 16.6982 14.0283 16.9993 13 16.9993C11.9717 16.9993 10.9659 16.6982 10.1067 16.1333C8.837 16.5457 7.67058 17.2257 6.68612 18.1274C5.70167 19.029 4.92209 20.1314 4.4 21.36C5.50828 22.4987 6.83168 23.4059 8.29338 24.029C9.75508 24.6521 11.326 24.9788 12.9149 24.9899C14.5039 25.0011 16.0792 24.6966 17.5495 24.094C19.0198 23.4915 20.3558 22.603 21.48 21.48L21.6 21.36C21.0779 20.1314 20.2983 19.029 19.3139 18.1274C18.3294 17.2257 17.163 16.5457 15.8933 16.1333V16.1333Z" stroke="#455FCE" stroke-width="2" stroke-linecap="round" stroke-linejoin="round"/>
</svg>
