<svg width="24" height="25" viewBox="0 0 24 25" fill="none" xmlns="http://www.w3.org/2000/svg">
<path d="M12.0053 0C17.1838 0 21.1429 4.33608 21.1429 9.80739L21.1376 11.895C21.1381 12.2462 21.3652 12.6522 21.9812 13.3771C22.0585 13.4682 22.1314 13.5526 22.2906 13.7365C23.5136 15.1516 24 15.9708 24 17.2437C24 17.8163 23.9349 18.2612 23.6635 18.7949C23.0852 19.9325 21.8494 20.5714 20 20.5714L17.0273 20.5722C16.2639 23.1595 14.5284 24.5714 12 24.5714C9.47163 24.5714 7.73606 23.1595 6.97274 20.5722L4 20.5714C2.09695 20.5714 0.848034 19.9152 0.294828 18.7386C0.05488 18.2282 0 17.8142 0 17.2437C0 15.9714 0.485433 15.1522 1.70609 13.7373C1.86504 13.5534 1.93773 13.469 2.01495 13.3779C2.63052 12.6521 2.85714 12.2459 2.85714 11.8939V9.80451C2.85714 4.33796 6.82517 0 12.0053 0ZM14.605 20.5723H9.39497C9.91016 21.7636 10.7413 22.2857 12 22.2857C13.2587 22.2857 14.0898 21.7636 14.605 20.5723ZM12.0053 2.28571C8.13526 2.28571 5.14286 5.55709 5.14286 9.80451V11.8939C5.14286 12.9541 4.70355 13.7416 3.75818 14.8563C3.67438 14.9551 3.59528 15.047 3.43676 15.2304C2.56814 16.2372 2.28571 16.7138 2.28571 17.2437C2.28571 17.5021 2.30396 17.6398 2.36333 17.7661C2.50496 18.0673 2.92066 18.2857 4 18.2857H20C21.0448 18.2857 21.47 18.0659 21.626 17.7591C21.6935 17.6263 21.7143 17.4845 21.7143 17.2437C21.7143 16.7144 21.4314 16.2379 20.5613 15.2312C20.4025 15.0478 20.3232 14.9559 20.2393 14.8571C19.2921 13.7422 18.8519 12.9547 18.8519 11.8939L18.8571 9.80451C18.8571 5.55437 15.8727 2.28571 12.0053 2.28571Z" fill="#455FCE"/>
</svg>
