<?xml version="1.0" standalone="no"?>
<!DOCTYPE svg PUBLIC "-//W3C//DTD SVG 20010904//EN"
 "http://www.w3.org/TR/2001/REC-SVG-20010904/DTD/svg10.dtd">
<svg version="1.0" xmlns="http://www.w3.org/2000/svg"
 width="82.000000pt" height="80.000000pt" viewBox="0 0 82.000000 80.000000"
 preserveAspectRatio="xMidYMid meet">

<g transform="translate(0.000000,80.000000) scale(0.100000,-0.100000)"
fill="#000000" stroke="none">
<path d="M405 419 c-151 -150 -275 -278 -275 -285 0 -7 4 -15 9 -19 12 -7 561
532 561 551 0 7 -4 16 -10 19 -5 3 -133 -116 -285 -266z"/>
<path d="M305 606 c-61 -19 -124 -53 -192 -105 -72 -53 -91 -87 -74 -128 13
-30 130 -124 157 -127 31 -2 24 19 -14 41 -58 33 -122 93 -122 113 0 28 85 96
177 142 91 45 184 60 258 39 31 -8 42 -8 53 3 31 31 -160 48 -243 22z"/>
<path d="M614 549 c-4 -7 -2 -15 4 -17 25 -8 131 -92 142 -112 15 -28 0 -52
-63 -99 -118 -90 -261 -130 -362 -102 -31 8 -42 8 -53 -3 -12 -11 -6 -16 38
-26 126 -30 263 7 397 108 106 80 106 124 0 204 -73 55 -92 64 -103 47z"/>
<path d="M346 499 c-47 -37 -69 -103 -46 -139 8 -12 25 0 89 64 44 44 78 83
75 88 -11 17 -91 8 -118 -13z"/>
<path d="M437 372 c-43 -43 -74 -81 -71 -85 4 -4 27 -7 52 -7 37 0 50 6 77 33
19 19 37 46 40 60 8 29 -1 77 -13 77 -4 0 -42 -35 -85 -78z"/>
</g>
</svg>
