<svg width="21" height="18" viewBox="0 0 21 18"
    xmlns="http://www.w3.org/2000/svg">
    <path d="M3.00003 10.18V12.99C3.00003 13.72 3.40003 14.4 4.04003 14.75L9.04003 17.48C9.64003 17.81 10.36 17.81 10.96 17.48L15.96 14.75C16.6 14.4 17 13.72 17 12.99V10.18L10.96 13.48C10.36 13.81 9.64003 13.81 9.04003 13.48L3.00003 10.18ZM9.04003 0.520029L0.610029 5.12003C-0.0799707 5.50003 -0.0799707 6.50003 0.610029 6.88003L9.04003 11.48C9.64003 11.81 10.36 11.81 10.96 11.48L19 7.09003V13C19 13.55 19.45 14 20 14C20.55 14 21 13.55 21 13V6.59003C21 6.22003 20.8 5.89003 20.48 5.71003L10.96 0.520029C10.36 0.200029 9.64003 0.200029 9.04003 0.520029Z"/>
</svg>