<svg width="23" height="24" viewBox="0 0 23 24" fill="none" xmlns="http://www.w3.org/2000/svg">
<rect y="0.5" width="23" height="23" rx="4" fill="#455FCE"/>
<path d="M4.00426 17.5V7.31818H5.84872V15.9538H10.3331V17.5H4.00426ZM18.3585 10.5696C18.2756 10.3011 18.1613 10.0608 18.0154 9.84872C17.8729 9.63329 17.7006 9.44934 17.4984 9.29688C17.2995 9.14441 17.0708 9.03007 16.8123 8.95383C16.5538 8.87429 16.2721 8.83452 15.9672 8.83452C15.4203 8.83452 14.9331 8.97206 14.5055 9.24716C14.0779 9.52225 13.7415 9.92661 13.4963 10.4602C13.2543 10.9905 13.1333 11.6368 13.1333 12.3991C13.1333 13.1681 13.2543 13.8194 13.4963 14.353C13.7382 14.8866 14.0746 15.2926 14.5055 15.571C14.9364 15.8461 15.4368 15.9837 16.0069 15.9837C16.524 15.9837 16.9714 15.8842 17.3493 15.6854C17.7304 15.4865 18.0237 15.2048 18.2292 14.8402C18.4347 14.4723 18.5375 14.0414 18.5375 13.5476L18.9551 13.6122H16.1909V12.1705H20.3223V13.3935C20.3223 14.2652 20.1367 15.0192 19.7654 15.6555C19.3942 16.2919 18.8838 16.7824 18.2342 17.1271C17.5846 17.4685 16.8388 17.6392 15.997 17.6392C15.059 17.6392 14.2354 17.4287 13.5261 17.0078C12.8201 16.5836 12.2683 15.982 11.8706 15.2031C11.4761 14.4209 11.2789 13.4929 11.2789 12.419C11.2789 11.5971 11.3949 10.8629 11.627 10.2166C11.8623 9.57031 12.1904 9.02178 12.6113 8.57102C13.0323 8.11695 13.5261 7.77225 14.0929 7.53693C14.6596 7.2983 15.2761 7.17898 15.9423 7.17898C16.5057 7.17898 17.0311 7.26184 17.5183 7.42756C18.0055 7.58996 18.438 7.82197 18.8159 8.12358C19.197 8.42519 19.5102 8.78314 19.7555 9.19744C20.0008 9.61174 20.1615 10.0691 20.2377 10.5696H18.3585Z" fill="white"/>
</svg>
