<?xml version="1.0" standalone="no"?>
<!DOCTYPE svg PUBLIC "-//W3C//DTD SVG 20010904//EN"
 "http://www.w3.org/TR/2001/REC-SVG-20010904/DTD/svg10.dtd">
<svg version="1.0" xmlns="http://www.w3.org/2000/svg"
 width="81.000000pt" height="81.000000pt" viewBox="0 0 81.000000 81.000000"
 preserveAspectRatio="xMidYMid meet">

<g transform="translate(0.000000,81.000000) scale(0.100000,-0.100000)"
fill="#000000" stroke="none">
<path d="M277 607 c-74 -26 -193 -102 -232 -149 -45 -53 -33 -85 55 -153 83
-64 192 -113 265 -121 113 -12 254 43 364 142 83 75 71 118 -56 206 -138 95
-269 119 -396 75z m235 -28 c109 -36 238 -131 238 -175 0 -49 -169 -159 -285
-185 -68 -15 -147 -3 -228 36 -59 28 -166 106 -180 132 -15 26 8 59 76 107
143 102 255 127 379 85z"/>
<path d="M343 510 c-61 -37 -79 -108 -43 -168 20 -32 71 -62 106 -62 30 0 80
30 97 59 65 111 -52 237 -160 171z"/>
</g>
</svg>
