<?xml version="1.0" ?><svg  viewBox="0 0 24 24" xmlns="http://www.w3.org/2000/svg"><path clip-rule="evenodd" d="M1 9C1 7.89543 1.89543 7 3 7H21C22.1046 7 23 7.89543 23 9V20C23 21.1046 22.1046 22 21 22H3C1.89543 22 1 21.1046 1 20V9ZM9.53819 10.113C9.86892 9.94083 10.268 9.96694 10.5735 10.1808L15.5735 13.6808C15.8408 13.8679 16 14.1737 16 14.5C16 14.8263 15.8408 15.1321 15.5735 15.3192L10.5735 18.8192C10.268 19.0331 9.86892 19.0592 9.53819 18.887C9.20746 18.7148 9 18.3729 9 18V11C9 10.6271 9.20746 10.2852 9.53819 10.113Z" fill="black" fill-rule="evenodd"/><path clip-rule="evenodd" d="M20 6.5H4V4.5H20V6.5Z" fill="black" fill-rule="evenodd"/><path clip-rule="evenodd" d="M18 4H6V2H18V4Z" fill="black" fill-rule="evenodd"/></svg>