<svg width="19" height="21" viewBox="0 0 19 21"
    xmlns="http://www.w3.org/2000/svg">
    <path d="M12 0H7.99998C7.44998 0 6.99998 0.45 6.99998 1C6.99998 1.55 7.44998 2 7.99998 2H12C12.55 2 13 1.55 13 1C13 0.45 12.55 0 12 0ZM9.99998 13C10.55 13 11 12.55 11 12V8C11 7.45 10.55 7 9.99998 7C9.44998 7 8.99998 7.45 8.99998 8V12C8.99998 12.55 9.44998 13 9.99998 13ZM17.03 6.39L17.78 5.64C18.16 5.26 18.17 4.63 17.78 4.24L17.77 4.23C17.38 3.84 16.76 3.85 16.37 4.23L15.62 4.98C14.07 3.74 12.12 3 9.99998 3C5.19998 3 1.11998 6.96 0.999978 11.76C0.869978 16.84 4.93998 21 9.99998 21C14.98 21 19 16.97 19 12C19 9.88 18.26 7.93 17.03 6.39ZM9.99998 19C6.12998 19 2.99998 15.87 2.99998 12C2.99998 8.13 6.12998 5 9.99998 5C13.87 5 17 8.13 17 12C17 15.87 13.87 19 9.99998 19Z"/>
</svg>